<mxfile host="app.diagrams.net" agent="Mozilla/5.0 (Macintosh; Intel Mac OS X 10_15_7) AppleWebKit/537.36 (KHTML, like Gecko) Chrome/134.0.0.0 Safari/537.36" version="26.1.3">
  <diagram name="Page-1" id="aiQsyrVRuzt4cnx5dqps">
    <mxGraphModel dx="1242" dy="792" grid="1" gridSize="10" guides="1" tooltips="1" connect="1" arrows="1" fold="1" page="1" pageScale="1" pageWidth="850" pageHeight="1100" math="0" shadow="0">
      <root>
        <mxCell id="0" />
        <mxCell id="1" parent="0" />
        <mxCell id="Pc6E_rjQw5eY3ajFNXCY-6" style="edgeStyle=orthogonalEdgeStyle;rounded=0;orthogonalLoop=1;jettySize=auto;html=1;exitX=0.5;exitY=1;exitDx=0;exitDy=0;entryX=0.5;entryY=0;entryDx=0;entryDy=0;" edge="1" parent="1" source="Pc6E_rjQw5eY3ajFNXCY-1" target="Pc6E_rjQw5eY3ajFNXCY-4">
          <mxGeometry relative="1" as="geometry" />
        </mxCell>
        <mxCell id="Pc6E_rjQw5eY3ajFNXCY-12" style="edgeStyle=orthogonalEdgeStyle;rounded=0;orthogonalLoop=1;jettySize=auto;html=1;exitX=1;exitY=1;exitDx=0;exitDy=0;entryX=0.5;entryY=0;entryDx=0;entryDy=0;" edge="1" parent="1" source="Pc6E_rjQw5eY3ajFNXCY-1" target="Pc6E_rjQw5eY3ajFNXCY-8">
          <mxGeometry relative="1" as="geometry" />
        </mxCell>
        <mxCell id="Pc6E_rjQw5eY3ajFNXCY-1" value="Centralized air quality database" style="rounded=0;whiteSpace=wrap;html=1;" vertex="1" parent="1">
          <mxGeometry x="365" y="180" width="120" height="60" as="geometry" />
        </mxCell>
        <mxCell id="Pc6E_rjQw5eY3ajFNXCY-5" value="" style="edgeStyle=orthogonalEdgeStyle;rounded=0;orthogonalLoop=1;jettySize=auto;html=1;" edge="1" parent="1" source="Pc6E_rjQw5eY3ajFNXCY-2" target="Pc6E_rjQw5eY3ajFNXCY-4">
          <mxGeometry relative="1" as="geometry" />
        </mxCell>
        <mxCell id="Pc6E_rjQw5eY3ajFNXCY-2" value="User" style="rounded=0;whiteSpace=wrap;html=1;" vertex="1" parent="1">
          <mxGeometry x="80" y="300" width="120" height="60" as="geometry" />
        </mxCell>
        <mxCell id="Pc6E_rjQw5eY3ajFNXCY-9" value="" style="edgeStyle=orthogonalEdgeStyle;rounded=0;orthogonalLoop=1;jettySize=auto;html=1;" edge="1" parent="1" source="Pc6E_rjQw5eY3ajFNXCY-4" target="Pc6E_rjQw5eY3ajFNXCY-8">
          <mxGeometry relative="1" as="geometry" />
        </mxCell>
        <mxCell id="Pc6E_rjQw5eY3ajFNXCY-4" value="Dashboard" style="whiteSpace=wrap;html=1;rounded=0;" vertex="1" parent="1">
          <mxGeometry x="280" y="300" width="120" height="60" as="geometry" />
        </mxCell>
        <mxCell id="Pc6E_rjQw5eY3ajFNXCY-11" value="" style="edgeStyle=orthogonalEdgeStyle;rounded=0;orthogonalLoop=1;jettySize=auto;html=1;" edge="1" parent="1" source="Pc6E_rjQw5eY3ajFNXCY-8" target="Pc6E_rjQw5eY3ajFNXCY-10">
          <mxGeometry relative="1" as="geometry" />
        </mxCell>
        <mxCell id="Pc6E_rjQw5eY3ajFNXCY-8" value="Query/search/API engine" style="whiteSpace=wrap;html=1;rounded=0;" vertex="1" parent="1">
          <mxGeometry x="480" y="300" width="120" height="60" as="geometry" />
        </mxCell>
        <mxCell id="Pc6E_rjQw5eY3ajFNXCY-10" value="Visuals/reports" style="whiteSpace=wrap;html=1;rounded=0;" vertex="1" parent="1">
          <mxGeometry x="680" y="300" width="120" height="60" as="geometry" />
        </mxCell>
      </root>
    </mxGraphModel>
  </diagram>
</mxfile>
